This is the full movie.
No Viruses.Don't worry.


Format                           : MPEG-4
Format profile                   : Base Media
Codec ID                         : isom
File size                        : 411 MiB
Duration                         : 26mn 45s
Overall bit rate                 : 2 145 Kbps
Encoded date                     : UTC 2011-09-18 00:34:49
Tagged date                      : UTC 2011-09-19 00:35:09

Video
ID                               : 1
Format                           : AVC
Format/Info                      : Advanced Video Codec
Format profile                   : High@L3.1
Format settings, CABAC           : Yes
Format settings, ReFrames        : 4 frame
Codec ID                         : avc1
Codec ID/Info                    : Advanced Video Coding
Duration                         : 26mn 45s
Bit rate                         : 1 985 Kbps
Maximum bit rate                 : 6 624 Kbps
Width                            : 1 280
Height                           : 720
Display aspect ratio             : 16:9
Frame rate                       : 30,000 fps
Color space                      : YUV
Chroma subsampling               : 4:2:0
Bit depth                        : 8 bits
Bits/(Pixel*Frame)               : 0.072
Stream size                      : 380 MiB (93%)
Writing library                  : Vimeo Encoder
Encoded date                     : UTC 2011-09-18 00:34:49
Tagged date                      : UTC 2011-09-18 00:35:07

Audio
ID                               : 2
Format                           : AAC
Format/Info                      : Advanced Audio Codec
Format profile                   : LC
Codec ID                         : 40
Duration                         : 26mn 45s
Bit rate                         : 157 Kbps
Maximum bit rate                 : 288 Kbps
Channel(s)                       : 2 channels
Channel positions                : Front: L R
Sampling rate                    : 44,1 KHz
Stream size                      : 30,0 MiB (7%)
Encoded date                     : UTC 2011-09-18 00:35:04
Tagged date                      : UTC 2011-09-18 00:35:07


Please seed and more movies will be uploaded soon!

Many thanks to: www DOTDOT com